<?xml version="1.0" encoding="UTF-8" standalone="no"?>
<!-- Generator: Adobe Illustrator 27.0.0, SVG Export Plug-In . SVG Version: 6.00 Build 0)  -->

<svg
   version="1.1"
   id="Layer_1"
   x="0px"
   y="0px"
   viewBox="0 0 1000 800"
   xml:space="preserve"
   sodipodi:docname="Lies_of_P_Logo_Vector2.svg"
   width="1000"
   height="800"
   inkscape:version="1.4 (e7c3feb100, 2024-10-09)"
   xmlns:inkscape="http://www.inkscape.org/namespaces/inkscape"
   xmlns:sodipodi="http://sodipodi.sourceforge.net/DTD/sodipodi-0.dtd"
   xmlns="http://www.w3.org/2000/svg"
   xmlns:svg="http://www.w3.org/2000/svg"><defs
   id="defs94">
</defs><sodipodi:namedview
   id="namedview94"
   pagecolor="#505050"
   bordercolor="#eeeeee"
   borderopacity="1"
   inkscape:showpageshadow="0"
   inkscape:pageopacity="0"
   inkscape:pagecheckerboard="0"
   inkscape:deskcolor="#505050"
   showgrid="false"
   inkscape:zoom="0.588"
   inkscape:cx="521.2585"
   inkscape:cy="387.7551"
   inkscape:window-width="1536"
   inkscape:window-height="790"
   inkscape:window-x="0"
   inkscape:window-y="0"
   inkscape:window-maximized="1"
   inkscape:current-layer="Layer_1" />


<g
   id="g94"
   transform="translate(0.00161639,-99.995782)">
	<path
   d="m 658.464,277.597 c -3.043,1.581 -6.334,1.276 -9.601,1.056 -25.975,-1.75 -51.867,-1.89 -77.414,4.15 -14.464,3.42 -28.418,8.293 -41.634,15.158 -0.692,0.359 -1.289,0.9 -2.045,1.438 5.091,2.765 5.127,2.801 0.968,6.938 -5.571,5.541 -9.344,12.036 -10.734,19.816 -0.241,1.347 -0.313,2.962 -1.925,3.076 -1.92,0.137 -1.75,-1.672 -1.814,-2.92 -0.219,-4.283 -2.633,-5.731 -6.628,-5.517 -4.313,0.232 -8.64,0.224 -12.953,0.458 -3.173,0.172 -4.706,1.85 -4.668,5.185 0.102,8.817 0.092,17.637 0.003,26.454 -0.036,3.609 1.59,5.184 5.126,5.109 3.161,-0.067 6.325,0.023 9.487,-0.023 4.188,-0.06 7.383,-1.637 8.908,-5.843 0.423,-1.165 0.645,-2.848 2.438,-2.666 1.747,0.178 1.864,1.725 1.867,3.047 0.029,11.979 0.026,23.957 -0.013,35.936 -0.004,1.35 -0.284,2.823 -2.008,2.952 -1.568,0.118 -1.757,-1.397 -2.061,-2.42 -1.5,-5.057 -5.161,-6.405 -9.981,-6.347 -15.661,0.188 -13.637,-1.619 -13.735,13.427 -0.063,9.65 0.103,19.302 -0.061,28.949 -0.069,4.047 1.587,5.845 5.558,5.827 8.156,-0.037 16.312,-0.025 24.468,-0.005 3.728,0.009 5.492,-1.689 5.303,-5.522 -0.147,-2.986 -0.009,-5.988 0.03,-8.982 0.016,-1.229 0.338,-2.593 1.683,-2.687 1.799,-0.126 1.871,1.552 2.093,2.841 1.373,7.966 4.489,15.282 8.451,22.25 1.793,3.153 3.916,6.117 5.844,9.196 1.039,1.66 1.099,3.137 -1.05,4.016 -5.055,2.068 -4.764,6.486 -4.144,10.567 1.935,12.731 11.435,20.842 24.474,21.242 11.898,0.365 23.111,-2.811 33.892,-7.322 27.347,-11.444 52.256,-26.997 75.178,-45.738 8.112,-6.632 16.004,-13.534 24.084,-20.206 2.241,-1.85 3.268,-3.929 3.255,-6.858 -0.079,-17.47 -0.134,-34.941 0.029,-52.409 0.043,-4.654 -1.753,-4.565 -5.497,-3.634 -22.744,5.654 -42.656,17.585 -63.159,28.186 -7.619,3.94 -7.023,3.973 -3.294,11.827 13.11,27.609 5.546,54.059 -26.83,63.712 -11.725,3.496 -24.118,2.041 -35.675,-2.916 -7.373,-3.163 -10.383,-10.195 -13.571,-16.633 -4.117,-8.313 -7.665,-16.948 -10.439,-25.849 -0.473,-1.517 -1.745,-3.49 0.491,-4.259 1.585,-0.545 2.468,1.337 3.031,2.726 2.011,4.964 4.957,9.347 7.923,13.784 8.983,13.435 34.562,11.808 43.055,4.151 7.262,-6.548 7.71,-17.419 0.831,-25.487 -6.374,-7.477 -15.418,-10.846 -23.559,-15.596 -11.363,-6.63 -21.398,-14.777 -24.831,-27.976 -5.05,-19.419 1.374,-37.837 18.728,-50.349 0.904,-0.652 2.063,-1.757 3.113,-1.034 1.551,1.068 0.579,2.81 0.186,4.109 -2.387,7.883 -3.987,15.801 -1.961,24.03 0.156,0.633 0.394,1.245 0.6,1.885 1.803,0.11 1.701,-1.339 2.13,-2.301 3.312,-7.442 6.733,-14.807 11.119,-21.722 3.234,-5.099 7.308,-7.651 13.546,-7.46 10.31,0.316 20.657,-0.345 30.953,0.148 16.682,0.799 31.703,-4.857 46.629,-11.042 4.896,-2.029 5.186,-3.069 3.861,-7.778 2.649,0.103 4.6,0.954 5.301,3.49 0.822,2.972 -1.118,4.749 -3.347,6.036 -7.854,4.536 -16.607,6.754 -25.189,9.329 -5.72,1.716 -11.597,2.916 -17.423,4.265 -2.252,0.522 -3.836,1.91 -5.29,3.541 -4.572,5.129 -8.318,10.789 -10.943,17.159 -1.192,2.891 -2.674,4.042 -6.394,3.651 -7.89,-0.828 -15.911,-1.249 -23.827,0.488 -2.473,0.543 -4.871,1.285 -6.932,2.69 -11.098,7.561 -10.528,11.365 -2.844,18.967 8.192,8.104 18.711,12.58 28.334,18.459 2.834,1.731 5.975,3.179 8.322,5.436 3.52,3.385 6.463,2.744 10.168,0.416 13.815,-8.68 28.141,-16.461 42.891,-23.44 7.996,-3.783 16.546,-6.042 24.965,-8.611 3.637,-1.11 5.195,-2.989 4.819,-6.808 -0.276,-2.801 -0.125,-5.654 -0.042,-8.48 0.098,-3.306 -1.155,-3.359 -3.449,-1.64 -5.468,4.097 -10.993,7.999 -17.967,9.347 -3.324,0.643 -6.603,0.71 -9.92,0.65 -1.212,-0.022 -2.989,0.347 -3.085,-1.588 -0.069,-1.374 1.236,-1.775 2.42,-2.074 10.816,-2.729 19.323,-9.402 27.8,-16.173 2.945,-2.352 4.351,-5.007 4.273,-8.94 -0.234,-11.808 -0.301,-23.63 0.018,-35.435 0.137,-5.056 -0.927,-9.112 -5.042,-12.221 -1.183,-0.894 -2.155,-2.076 -3.19,-3.158 -3.544,-3.708 -3.447,-5.25 1.369,-6.343 9.05,-2.054 15.085,-8.145 20.998,-14.466 9.209,-9.844 17.806,-20.217 26.148,-30.806 1.047,-1.329 1.904,-3.796 4.053,-3.005 2.129,0.784 1.158,3.219 1.165,4.911 0.071,16.804 0.039,33.609 0.057,50.413 10e-4,1.099 0.179,2.197 0.312,3.73 3.075,-1.633 4.382,-4.228 6.177,-6.297 9.271,-10.68 18.238,-21.606 25.737,-33.633 1.49,-2.39 3.231,-3.417 6.062,-3.411 33.79,0.065 67.58,0.034 101.37,0.061 1.43,10e-4 3.282,-0.551 4.124,0.979 0.983,1.787 -0.683,3.102 -1.599,4.382 -19.421,27.107 -29.741,57.673 -34.366,90.385 -1.139,8.058 -1.912,16.167 -2.952,24.24 -0.639,4.959 1.042,8.218 5.434,11.102 21.657,14.223 36.559,33.729 43.844,58.69 6.127,20.995 6.506,42.366 2.278,63.707 -6.528,32.951 -23.526,60.481 -45.695,85.053 -27.679,30.68 -61.343,52.835 -99.377,68.595 -3.07,1.272 -6.115,2.618 -9.237,3.748 -1.833,0.663 -3.189,1.681 -4.093,3.397 -10.794,20.506 -27.073,36.526 -43.313,52.524 -13.514,13.313 -27.804,25.801 -42.302,38.028 -32.588,27.484 -68.58,48.825 -109.266,62.443 -30.999,10.375 -62.505,13.53 -94.872,11.611 -12.881,-0.764 -25.405,-2.759 -37.496,-7.284 -0.907,-0.339 -1.955,-0.534 -2.629,-2.106 7.76,1.297 14.906,3.888 22.42,4.91 16.739,2.277 33.512,2.49 50.283,1.316 11.428,-0.8 22.936,-1.44 34.16,-3.998 21.479,-4.895 42.07,-12.407 61.947,-21.834 20.81,-9.869 40.392,-21.668 58.195,-36.448 22.204,-18.433 36.098,-42.268 46.184,-68.728 1.713,-4.495 3.029,-9.141 4.549,-13.71 0.909,-2.731 0.169,-3.708 -2.804,-3.064 -24.592,5.328 -49.656,7.107 -74.604,9.72 -7.102,0.744 -14.264,0.983 -21.405,1.272 -6.471,0.262 -6.85,0.52 -6.88,6.787 -0.005,0.998 0.062,2.001 -0.01,2.994 -0.237,3.291 0.609,5.584 4.527,5.546 1.895,-0.019 3.473,1.288 1.306,2.526 -13.329,7.618 -18.055,22.325 -27.675,32.958 -1.451,1.603 -2.895,3.219 -4.448,4.72 -1.157,1.118 -2.262,2.911 -4.122,2.262 -2.065,-0.72 -1.26,-2.853 -1.265,-4.377 -0.045,-14.641 -0.181,-29.286 0.123,-43.922 0.1,-4.797 -1.013,-6.096 -6.078,-5.774 -16.454,1.045 -32.678,3.632 -48.919,6.197 -2.979,0.471 -5.91,0.988 -7.137,4.47 -0.82,2.327 -2.404,2.657 -4.093,0.726 -1.552,-1.773 -3.271,-2.587 -5.714,-2.06 -21.211,4.577 -42.038,10.289 -60.668,21.896 -22.42,13.967 -35.648,33.482 -35.537,60.685 0.009,2.302 0.52,4.609 0.871,6.902 0.321,2.097 0.74,4.178 0.796,6.353 -4.101,-5.215 -5.16,-11.453 -5.345,-17.769 -0.702,-23.872 9.125,-42.442 28.804,-55.86 17.935,-12.229 38.278,-18.291 59.16,-22.93 2.589,-0.575 5.248,-0.823 7.852,-1.34 3.462,-0.687 4.644,-1.968 1.774,-5.169 -9.893,-11.038 -20.173,-21.699 -31.373,-31.396 -3.968,-3.435 -6.288,-6.021 -2.718,-11.386 3.203,-4.813 3.079,-10.847 2.657,-16.499 -0.54,-7.231 2.601,-15.029 -3.098,-21.554 -0.688,-0.788 -0.593,-2.121 0.156,-2.793 4.006,-3.597 2.668,-8.248 2.651,-12.632 -0.026,-6.822 -0.435,-13.672 -2.135,-20.248 -1.048,-4.052 -0.081,-6.144 3.479,-7.856 1.459,-0.702 3.893,-1.365 3.281,-3.756 -0.497,-1.941 -2.771,-1.535 -4.265,-2.017 -1.554,-0.501 -3.289,-0.406 -4.91,-0.741 -2.593,-0.536 -5.182,-1.743 -5.039,-4.649 0.144,-2.923 3.213,-2.48 5.165,-2.59 12.544,-0.707 23.62,-5.363 33.544,-12.708 7.746,-5.733 15.176,-11.906 21.927,-18.839 4.269,-4.384 4.378,-4.372 8.124,0.658 4.668,6.267 9.234,12.611 13.934,18.853 2.389,3.173 3.535,6.533 3.489,10.606 -0.172,15.139 0.003,30.281 -0.108,45.421 -0.026,3.513 0.43,6.538 3.415,8.848 2.798,2.165 2.444,4.565 -0.159,6.61 -2.808,2.206 -3.188,5.079 -3.271,8.408 -0.265,10.736 0.022,21.302 5.766,30.904 1.583,2.646 -0.024,4.189 -1.979,5.834 -10.326,8.687 -20.204,17.84 -28.467,28.58 -1.364,1.773 -4.112,3.832 -2.816,5.793 1.115,1.687 4.323,0.621 6.598,0.217 14.258,-2.531 28.66,-3.723 43.095,-4.52 6.354,-0.351 7.182,-0.993 7.185,-7.295 0.012,-24.458 -0.176,-48.918 0.133,-73.372 0.077,-6.107 -0.948,-11.061 -6.087,-14.764 -4.085,-2.944 -4.069,-6.16 0.031,-9.074 4.997,-3.551 6.256,-8.295 6.046,-14.255 -0.404,-11.466 -0.196,-22.957 -0.083,-34.436 0.05,-5.036 -1.353,-8.819 -6.765,-10.103 -1.15,-0.273 -2.356,-0.834 -2.257,-2.264 0.121,-1.747 1.647,-1.862 2.957,-2.021 0.987,-0.12 1.994,-0.1 2.992,-0.1 25.967,-0.008 51.933,-0.026 77.9,0.017 1.899,0.003 4.478,-0.842 5.439,1.346 1.009,2.294 -1.609,3.358 -2.882,4.71 -5.347,5.677 -9.533,11.938 -10.814,19.819 -0.257,1.581 -0.171,3.759 -2.5,3.593 -1.937,-0.138 -1.938,-2.123 -1.875,-3.554 0.159,-3.632 -1.718,-4.477 -4.96,-4.401 -6.821,0.159 -13.649,0.131 -20.472,0.023 -3.641,-0.058 -5.141,1.648 -5.126,5.132 0.033,7.82 0.039,15.64 -10e-4,23.459 -0.017,3.291 1.48,4.955 4.811,4.935 3.495,-0.021 6.991,-0.025 10.486,-0.005 4.511,0.026 7.7,-1.815 8.936,-6.343 0.326,-1.193 0.67,-2.473 2.112,-2.272 1.401,0.195 1.557,1.586 1.559,2.769 0.02,12.312 0.028,24.624 -0.003,36.935 -0.003,1.109 0.107,2.558 -1.421,2.799 -1.464,0.231 -1.902,-0.924 -2.207,-2.147 -1.204,-4.825 -4.473,-6.53 -9.258,-6.445 -17.644,0.313 -14.864,-2.305 -14.984,14.544 -0.15,20.963 0.056,41.929 -0.111,62.891 -0.034,4.287 0.916,5.791 5.619,5.332 32.585,-3.174 65.173,-6.218 97.18,-13.554 3.9,-0.894 5.686,-2.691 6.601,-6.773 4.95,-22.078 4.922,-44.555 5.69,-66.947 0.507,-14.788 -0.203,-29.618 0.255,-44.409 0.212,-6.85 -1.588,-11.927 -6.712,-16.655 -6.982,-6.442 -7.94,-5.46 -0.008,-12.751 4.645,-4.269 6.267,-8.762 5.92,-14.899 -0.497,-8.791 -0.158,-17.629 -0.187,-26.447 -0.021,-6.305 -0.597,-6.798 -7.004,-5.735 -14.659,2.432 -28.813,6.781 -42.661,12 -20.367,7.676 -40.44,16.141 -60.891,23.577 -10.788,3.923 -22.083,6.363 -33.762,3.18 -12.974,-3.537 -20.529,-14.84 -18.006,-28.063 0.918,-4.811 -1.071,-5.392 -4.906,-5.383 -24.801,0.06 -49.603,0.029 -74.405,0.027 -1.165,0 -2.339,0.075 -3.493,-0.038 -1.893,-0.185 -4.613,0.453 -5.068,-1.965 -0.466,-2.478 2.451,-2.125 3.937,-2.881 3.132,-1.594 4.627,-4.085 4.789,-7.569 0.975,-20.95 0.408,-41.914 0.635,-62.871 0.045,-4.109 -3.487,-4.938 -5.87,-6.729 -4.277,-3.216 -4.483,-3.925 0.096,-6.386 3.849,-2.068 4.985,-4.798 5.253,-9.147 0.809,-13.144 0.132,-26.28 0.508,-39.409 0.153,-5.349 -1.256,-9.536 -6.973,-11.153 -1.102,-0.312 -2.577,-0.674 -2.179,-2.142 0.161,-0.594 1.62,-1.049 2.542,-1.178 1.638,-0.23 3.318,-0.211 4.98,-0.213 18.143,-0.015 36.287,-0.043 54.43,0.007 4.259,0.012 8.035,-0.983 11.844,-3.101 34.034,-18.925 70.534,-26.104 109.245,-22.44 4.47,0.423 8.969,0.56 13.436,1.005 4.279,0.428 8.527,1.082 12.786,1.635 z m 87.111,289.011 c -0.033,0 -0.066,0 -0.1,0 0,13.306 0.007,26.612 -0.004,39.917 -0.003,3.992 0.012,7.985 -0.103,11.974 -0.103,3.573 1.365,4.507 4.574,3.061 3.029,-1.365 6.103,-2.631 9.128,-4.005 42.562,-19.32 80.147,-45.299 109.251,-82.385 13.438,-17.123 26.086,-35.195 28.108,-57.484 1.796,-19.803 1.752,-39.843 -2.32,-59.628 -5.351,-26.001 -17.769,-47.409 -39.549,-63.026 -1.195,-0.857 -2.465,-2.28 -3.941,-1.69 -1.714,0.685 -0.944,2.628 -1.002,4.036 -0.58,14.182 0.958,28.244 3.267,42.17 1.569,9.459 3.333,19.249 10.825,26.249 3.46,3.233 1.973,4.388 -1.129,5.912 -6.577,3.232 -12.823,7.047 -18.851,11.197 -14.629,10.071 -27.744,21.73 -37.792,36.543 -2.014,2.968 -3.608,3.694 -5.452,-0.305 -1.449,-3.142 -3.303,-6.178 -5.421,-8.919 -11.35,-14.682 -27.332,-20.998 -44.807,-24.788 -4.877,-1.058 -5.751,0.636 -5.568,4.93 0.391,9.132 0.93,18.3 0.515,27.412 -0.336,7.387 1.579,13.013 7.378,17.843 4.995,4.16 4.995,4.994 0.039,9.141 -5.823,4.872 -7.457,10.566 -7.198,17.941 0.514,14.618 0.152,29.268 0.152,43.904 z M 803.128,413.57 c 1.177,-2.419 0.819,-4.272 0.728,-6.05 -1.138,-22.079 -2.163,-44.166 -1.797,-66.276 0.082,-4.969 -1.961,-6.15 -6.336,-6.623 -15.344,-1.662 -30.551,0.142 -45.796,1.254 -3.853,0.281 -5.357,2.011 -5.289,6.066 0.227,13.631 0.241,27.27 -0.003,40.9 -0.079,4.418 1.736,5.981 5.781,6.083 5.525,0.139 10.809,1.471 16.041,3.23 13.573,4.566 25.389,12.138 36.671,21.416 z M 744.732,309.893 c 0,7.786 0.064,13.107 -0.026,18.425 -0.048,2.854 1.089,3.779 3.944,3.471 16.028,-1.734 32.071,-3.465 48.218,-1.741 3.948,0.422 5.143,-1.227 5.413,-5.01 1.234,-17.277 4.064,-34.283 9.826,-50.688 1.214,-3.457 -0.743,-3.6 -3.168,-3.68 -10.125,-0.334 -20.382,0.077 -30.292,-1.972 -8.762,-1.812 -14.66,0.93 -19.185,8.121 -0.786,1.25 -1.81,2.426 -2.947,3.368 -10.19,8.449 -14.697,18.944 -11.783,29.706 z M 495.524,558.718 c -0.019,0 -0.039,0 -0.058,0 0,-4.823 0.241,-9.661 -0.07,-14.464 -0.288,-4.452 -2.582,-5.465 -6.24,-3.091 -2.509,1.628 -4.866,3.493 -7.394,5.089 -2.83,1.787 -3.902,4.174 -3.738,7.53 0.235,4.812 0.141,9.646 0.032,14.467 -0.089,3.905 -0.074,7.628 3.449,10.375 1.456,1.136 1.959,3.012 0.291,4.307 -4.213,3.271 -3.787,7.77 -3.728,12.273 0.069,5.322 -0.008,10.645 0.015,15.968 0.01,2.206 -0.006,4.331 -2.229,5.683 -1.345,0.819 -2.05,2.185 -0.446,3.14 3.346,1.994 4.572,6.395 8.67,7.391 0.243,0.059 0.678,-0.66 1.021,-1.019 10.384,-10.888 10.385,-10.888 10.413,-26.5 0.005,-2.661 -0.086,-5.326 0.021,-7.983 0.127,-3.148 -0.444,-5.914 -3.109,-7.989 -2.319,-1.805 -2.534,-3.877 -0.106,-5.748 2.849,-2.196 3.319,-5.153 3.229,-8.452 -0.1,-3.657 -0.023,-7.318 -0.023,-10.977 z"
   id="path92" />
	<path
   d="m 366.417,509.4 c -7.244,20.557 -17.441,39.424 -32.063,55.717 -21.391,23.835 -47.974,38.147 -79.558,42.875 -20.478,3.065 -40.87,1.381 -60.8,-3.979 -24.683,-6.639 -47.644,-17.1 -66.86,-34.322 -24.595,-22.044 -34.911,-49.557 -29.842,-82.441 7.56,-49.043 35.358,-83.924 76.805,-109.13 18.272,-11.112 38.016,-18.324 59.292,-20.836 6.243,-0.737 12.633,-0.367 18.951,-0.258 3.202,0.055 4.556,-1.095 4.49,-4.329 -0.126,-6.214 1.36,-12.767 -4.845,-17.35 -1.979,-1.462 -1.194,-3.364 0.463,-4.606 4.115,-3.082 4.51,-7.294 4.446,-12 -0.184,-13.473 -0.207,-26.951 0.008,-40.423 0.072,-4.537 -1.087,-8.351 -3.458,-12.172 -9.059,-14.604 -16.572,-29.924 -20.584,-46.764 -0.154,-0.647 -0.339,-1.29 -0.439,-1.945 -0.364,-2.374 -2.211,-5.553 0.097,-6.909 2.326,-1.367 3.676,2.065 5.237,3.59 11.776,11.503 23.328,23.261 36.922,32.693 2.987,2.072 6.136,4.268 9.545,5.286 4.573,1.365 5.162,4.109 5.131,8.2 -0.153,20.294 -0.016,40.591 -0.12,60.886 -0.018,3.512 0.367,6.521 3.463,8.771 3.027,2.199 2.79,4.637 -0.102,6.843 -2.796,2.133 -3.378,4.949 -3.371,8.339 0.04,19.13 -0.031,38.261 -0.264,57.39 -0.045,3.703 0.98,5.384 4.885,5.705 10.862,0.895 21.141,4.027 30.966,8.752 1.919,0.923 4.097,1.359 6.195,1.851 10.757,2.521 15.785,-1.07 16.467,-12.266 0.929,-15.242 -6.624,-25.882 -19.006,-33.781 -3.726,-2.377 -8.151,-3.555 -11.799,-6.696 0.671,-0.427 1.086,-0.915 1.392,-0.854 21.207,4.181 38.777,13.629 48.883,33.846 3.037,6.077 4.243,12.549 4.256,19.283 0.02,10.588 1.07,20.879 7.085,30.114 2.578,3.958 -1.177,3.66 -3.201,3.601 -7.645,-0.221 -15.297,-0.528 -22.919,-1.147 -18.562,-1.507 -36.715,-5.424 -54.999,-8.826 -22.918,-4.264 -45.721,-2.368 -67.035,8.54 -0.592,0.303 -1.169,0.648 -1.786,0.888 -1.033,0.402 -2.222,1.354 -3.115,0.036 -0.648,-0.957 0.182,-1.949 0.794,-2.688 4.451,-5.375 8.838,-10.81 13.471,-16.025 4.203,-4.731 8.876,-9.017 14.069,-12.661 2.414,-1.694 3.401,-3.75 3.38,-6.716 -0.116,-16.469 -0.106,-32.938 -0.087,-49.408 0.004,-3.212 -0.365,-5.239 -4.652,-4.989 -51.58,3.003 -93.001,25.845 -123.629,66.548 -20.064,26.665 -30.134,57.816 -26.88,91.793 2.28,23.808 13.795,42.77 34.065,55.921 24.305,15.768 51.012,24.623 79.832,27.425 32.099,3.121 62.229,-2.728 90.048,-19.297 20.774,-12.373 36.679,-29.554 48.791,-50.327 4.168,-7.147 7.999,-14.492 11.985,-21.748 z"
   id="path93" />
	<path
   d="m 447.128,368.934 c -4.23,6.321 -8.467,12.637 -12.687,18.964 -1.845,2.767 -3.585,5.608 -5.5,8.326 -1.887,2.678 -3.705,5.223 -0.984,8.457 0.791,0.94 0.623,2.198 0.079,3.322 -5.564,11.486 -6.655,23.837 -7.176,36.33 -0.097,2.332 0.76,5.654 -2.162,6.578 -2.499,0.791 -4.559,-1.619 -6.382,-3.222 -10.155,-8.929 -14.627,-21.053 -18.861,-33.391 -4.009,-11.681 -2.589,-23.682 -2.752,-35.593 -0.05,-3.648 -0.37,-6.908 -3.473,-9.369 -2.183,-1.732 -2.043,-3.8 0.057,-5.439 3.153,-2.461 3.471,-5.724 3.444,-9.358 -0.101,-13.47 -0.107,-26.942 -0.019,-40.413 0.031,-4.737 -0.994,-8.585 -6.151,-10.076 -0.919,-0.265 -2.153,-0.623 -1.945,-1.878 0.245,-1.475 1.748,-1.436 2.806,-1.475 4.154,-0.155 8.314,-0.184 12.471,-0.189 9.817,-0.011 19.633,-0.007 29.449,0.058 1.428,0.009 3.526,-0.208 3.867,1.417 0.384,1.829 -1.783,2.136 -3.095,2.621 -3.659,1.352 -5.086,4.111 -5.09,7.749 -0.019,14.967 0.045,29.935 -10e-4,44.902 -0.008,2.604 1.254,4.457 2.993,6.046 2.446,2.237 2.704,4.091 0.098,6.589 -3.152,3.02 -4.381,20.763 -1.836,24.305 1.808,2.518 2.485,-0.251 3.07,-1.116 5.402,-7.994 10.818,-15.971 17.127,-23.296 0.511,-0.593 1.073,-1.144 1.611,-1.714 0.347,0.288 0.694,0.576 1.042,0.865 z"
   id="path94" />
</g>
</svg>
